<?xml version="1.0" encoding="UTF-8" standalone="no"?>
<svg
   width="3in"
   height="3in"
   viewBox="0 0 900 900"
   version="1.1"
   id="svg3"
   sodipodi:docname="idempiere-filled.svg"
   inkscape:version="1.1.2 (0a00cf5339, 2022-02-04)"
   xmlns:inkscape="http://www.inkscape.org/namespaces/inkscape"
   xmlns:sodipodi="http://sodipodi.sourceforge.net/DTD/sodipodi-0.dtd"
   xmlns="http://www.w3.org/2000/svg"
   xmlns:svg="http://www.w3.org/2000/svg">
  <defs
     id="defs7" />
  <sodipodi:namedview
     id="namedview5"
     pagecolor="#ffffff"
     bordercolor="#666666"
     borderopacity="1.0"
     inkscape:pageshadow="2"
     inkscape:pageopacity="0.0"
     inkscape:pagecheckerboard="0"
     inkscape:document-units="in"
     showgrid="false"
     inkscape:zoom="2.8819444"
     inkscape:cx="78.592772"
     inkscape:cy="124.91566"
     inkscape:window-width="1920"
     inkscape:window-height="1008"
     inkscape:window-x="1920"
     inkscape:window-y="0"
     inkscape:window-maximized="1"
     inkscape:current-layer="svg3" />
  <path
     id="Selection"
     fill="none"
     stroke="#000000"
     stroke-width="1.04999"
     d="m 309.49712,3.6181574 c 31.79836,16.8175056 63.33118,37.0980876 92.93884,57.5114396 0,0 55.32074,40.959473 55.32074,40.959473 80.21508,63.87333 163.73833,153.9023 190.43612,255.58181 7.01466,26.75312 9.0394,49.95463 8.71855,77.44904 -0.27661,23.31216 -7.35767,55.27648 -14.74852,77.44903 -20.36909,61.08517 -58.1421,117.44593 -106.95711,159.46756 -25.00497,21.53083 -66.46234,48.44991 -100.68375,48.44991 -7.89979,0 -15.63363,-2.62221 -23.23471,-4.33715 3.10903,9.83603 13.78594,23.37854 20.84486,30.93536 25.00497,26.79736 53.99304,37.50746 89.79662,39.97476 4.83504,0.33193 6.6053,1.18387 12.17057,0.96259 0,0 8.85132,-1.06216 8.85132,-1.06216 0,0 9.95773,0 9.95773,0 16.98346,-1.26132 34.32098,-3.04264 50.89507,-7.15851 47.8967,-11.92715 90.22813,-40.62755 118.36426,-81.35468 14.02934,-20.32484 25.09348,-40.76032 33.12606,-64.17205 12.09311,-35.26144 17.11623,-91.97627 16.68473,-129.45053 0,0 -1.15067,-11.06414 -1.15067,-11.06414 0,0 0,-11.06416 0,-11.06416 0,0 -7.25808,-48.68225 -7.25808,-48.68225 C 728.40789,258.22633 584.69567,136.17771 432.30916,57.544813 c 0,0 -76.8405,-36.932125 -76.8405,-36.932125 C 334.94466,12.192873 309.49712,3.6181574 309.49712,3.6181574 Z M 223.19677,227.42374 c -8.97302,1.30557 -15.43448,1.93622 -24.34112,4.60268 -22.32745,6.67169 -43.01741,22.94704 -55.25436,42.66336 -33.62393,54.19219 -10.88712,125.8768 48.61587,149.97452 10.13476,4.1048 25.58031,7.00361 36.51168,7.13638 14.27276,0.15489 31.27836,-3.2418 44.2566,-9.19431 11.56204,-5.29973 22.11723,-12.60206 30.93535,-21.7853 42.79613,-44.54426 36.7883,-117.65616 -13.23271,-154.18997 -9.39347,-6.85977 -20.78954,-12.59101 -32.08604,-15.50087 -11.17478,-2.87668 -23.87642,-4.76865 -35.40527,-3.70649 z m 351.8399,216.5475 c -23.20151,-9.8471 -45.62855,-16.22004 -70.81055,-18.7648 0,0 -9.95773,0 -9.95773,0 0,0 -14.38339,-1.15067 -14.38339,-1.15067 0,0 -11.06415,1.15067 -11.06415,1.15067 0,0 -9.95773,0 -9.95773,0 -18.01243,1.85878 -35.83678,5.67591 -53.10791,11.04202 -81.34361,25.29264 -143.42455,88.98894 -195.17157,153.76952 -18.89756,23.65515 -41.31352,56.63737 -56.29438,82.98111 -4.89035,8.59685 -17.18262,30.23832 -19.60567,38.72452 5.28866,-4.11586 7.96619,-8.40875 12.35865,-13.27698 14.23956,-15.76641 43.73658,-41.50161 66.1968,-27.51653 10.94244,6.80445 22.19468,23.78791 24.87221,36.36785 0,0 0.76342,14.38339 0.76342,14.38339 0,0 3.62904,24.34113 3.62904,24.34113 6.30656,31.53282 20.57932,64.89122 42.84038,88.46893 13.77486,14.59361 36.09125,26.7531 54.02623,35.72612 17.61412,8.80707 36.10232,15.62258 55.32075,20.02612 90.51578,20.75634 172.76665,-13.35443 241.19842,-72.00548 16.30855,-13.97402 31.17876,-28.95488 45.71705,-44.74342 5.74229,-6.2291 16.25323,-16.80643 19.56141,-24.15303 0,0 -49.78866,30.69195 -49.78866,30.69195 -27.64931,14.27275 -65.22315,23.66621 -96.25808,25.83478 0,0 -11.06415,1.00684 -11.06415,1.00684 0,0 -27.66038,1.10642 -27.66038,1.10642 -19.12991,-0.0885 -43.61486,-5.06738 -60.8528,-13.39869 -47.02264,-22.7147 -70.52288,-68.17727 -76.50858,-118.26467 0,0 -1.95836,-24.34113 -1.95836,-24.34113 0,0 0.97365,-9.95773 0.97365,-9.95773 2.48943,-57.22377 25.95649,-113.44071 64.4044,-156.00448 26.17778,-28.98807 55.90714,-49.14695 96.07,-48.68225 7.03679,0.0885 16.47451,1.78132 23.2347,3.80607 4.55843,1.36088 8.55259,4.10479 13.27698,2.83242 z"
     style="fill:#ffffff" />
</svg>
