<?xml version="1.0" encoding="UTF-8" standalone="no"?>
<svg
   width="3in"
   height="3in"
   viewBox="0 0 900 900"
   version="1.1"
   id="svg3"
   sodipodi:docname="idempiere-filled.svg"
   inkscape:version="1.1.2 (0a00cf5339, 2022-02-04)"
   xmlns:inkscape="http://www.inkscape.org/namespaces/inkscape"
   xmlns:sodipodi="http://sodipodi.sourceforge.net/DTD/sodipodi-0.dtd"
   xmlns="http://www.w3.org/2000/svg"
   xmlns:svg="http://www.w3.org/2000/svg">
  <defs
     id="defs7" />
  <sodipodi:namedview
     id="namedview5"
     pagecolor="#ffffff"
     bordercolor="#666666"
     borderopacity="1.0"
     inkscape:pageshadow="2"
     inkscape:pageopacity="0.0"
     inkscape:pagecheckerboard="0"
     inkscape:document-units="in"
     showgrid="false"
     inkscape:zoom="2.8819444"
     inkscape:cx="144"
     inkscape:cy="144"
     inkscape:window-width="1920"
     inkscape:window-height="1008"
     inkscape:window-x="1920"
     inkscape:window-y="0"
     inkscape:window-maximized="1"
     inkscape:current-layer="svg3" />
  <path
     id="Selection"
     fill="none"
     stroke="black"
     stroke-width="1"
     d="M 312.00,47.00            C 340.74,62.20 369.24,80.53 396.00,98.98              396.00,98.98 446.00,136.00 446.00,136.00              518.50,193.73 593.99,275.10 618.12,367.00              624.46,391.18 626.29,412.15 626.00,437.00              625.75,458.07 619.35,486.96 612.67,507.00              594.26,562.21 560.12,613.15 516.00,651.13              493.40,670.59 455.93,694.92 425.00,694.92              417.86,694.92 410.87,692.55 404.00,691.00              406.81,699.89 416.46,712.13 422.84,718.96              445.44,743.18 471.64,752.86 504.00,755.09              508.37,755.39 509.97,756.16 515.00,755.96              515.00,755.96 523.00,755.00 523.00,755.00              523.00,755.00 532.00,755.00 532.00,755.00              547.35,753.86 563.02,752.25 578.00,748.53              621.29,737.75 659.55,711.81 684.98,675.00              697.66,656.63 707.66,638.16 714.92,617.00              725.85,585.13 730.39,533.87 730.00,500.00              730.00,500.00 728.96,490.00 728.96,490.00              728.96,490.00 728.96,480.00 728.96,480.00              728.96,480.00 722.40,436.00 722.40,436.00              690.62,277.12 560.73,166.81 423.00,95.74              423.00,95.74 353.55,62.36 353.55,62.36              335.00,54.75 312.00,47.00 312.00,47.00 Z            M 234.00,249.28            C 225.89,250.46 220.05,251.03 212.00,253.44              191.82,259.47 173.12,274.18 162.06,292.00              131.67,340.98 152.22,405.77 206.00,427.55              215.16,431.26 229.12,433.88 239.00,434.00              251.90,434.14 267.27,431.07 279.00,425.69              289.45,420.90 298.99,414.30 306.96,406.00              345.64,365.74 340.21,299.66 295.00,266.64              286.51,260.44 276.21,255.26 266.00,252.63              255.90,250.03 244.42,248.32 234.00,249.28 Z            M 552.00,445.00            C 531.03,436.10 510.76,430.34 488.00,428.04              488.00,428.04 479.00,428.04 479.00,428.04              479.00,428.04 466.00,427.00 466.00,427.00              466.00,427.00 456.00,428.04 456.00,428.04              456.00,428.04 447.00,428.04 447.00,428.04              430.72,429.72 414.61,433.17 399.00,438.02              325.48,460.88 269.37,518.45 222.60,577.00              205.52,598.38 185.26,628.19 171.72,652.00              167.30,659.77 156.19,679.33 154.00,687.00              158.78,683.28 161.20,679.40 165.17,675.00              178.04,660.75 204.70,637.49 225.00,650.13              234.89,656.28 245.06,671.63 247.48,683.00              247.48,683.00 248.17,696.00 248.17,696.00              248.17,696.00 251.45,718.00 251.45,718.00              257.15,746.50 270.05,776.65 290.17,797.96              302.62,811.15 322.79,822.14 339.00,830.25              354.92,838.21 371.63,844.37 389.00,848.35              470.81,867.11 545.15,836.28 607.00,783.27              621.74,770.64 635.18,757.10 648.32,742.83              653.51,737.20 663.01,727.64 666.00,721.00              666.00,721.00 621.00,748.74 621.00,748.74              596.01,761.64 562.05,770.13 534.00,772.09              534.00,772.09 524.00,773.00 524.00,773.00              524.00,773.00 499.00,774.00 499.00,774.00              481.71,773.92 459.58,769.42 444.00,761.89              401.50,741.36 380.26,700.27 374.85,655.00              374.85,655.00 373.08,633.00 373.08,633.00              373.08,633.00 373.96,624.00 373.96,624.00              376.21,572.28 397.42,521.47 432.17,483.00              455.83,456.80 482.70,438.58 519.00,439.00              525.36,439.08 533.89,440.61 540.00,442.44              544.12,443.67 547.73,446.15 552.00,445.00 Z"
     style="fill:#ffffff" />
</svg>
