<?xml version="1.0" encoding="UTF-8" standalone="no"?>
<!DOCTYPE svg PUBLIC "-//W3C//DTD SVG 20010904//EN"
              "http://www.w3.org/TR/2001/REC-SVG-20010904/DTD/svg10.dtd">

<svg xmlns="http://www.w3.org/2000/svg"
     width="135.45mm" height="135.45mm"
     viewBox="0 0 512 512">
  <path id="Selection"
        fill="none" stroke="black" stroke-width="1"
        d="M 512.00,0.00M 192.00,22.00
           C 192.05,25.94 194.82,27.38 198.00,29.22
             198.00,29.22 216.00,40.17 216.00,40.17
             245.02,59.22 260.93,71.74 286.99,94.57
             313.45,117.77 347.05,159.61 358.95,193.00
             362.98,204.31 367.98,217.96 368.00,230.00
             368.00,230.00 368.00,252.00 368.00,252.00
             367.85,264.42 359.54,290.72 354.09,302.28
             339.45,333.38 323.56,354.44 297.00,376.41
             283.83,387.31 266.47,397.20 249.00,397.00
             249.00,397.00 238.00,396.00 238.00,396.00
             239.60,402.56 244.42,408.22 249.04,413.00
             260.83,425.20 273.71,430.02 290.00,432.59
             294.82,433.35 298.01,434.15 303.00,433.96
             303.00,433.96 319.00,431.93 319.00,431.93
             319.00,431.93 328.00,431.93 328.00,431.93
             343.47,429.49 362.19,422.41 375.00,413.54
             385.38,406.34 394.64,396.15 402.08,386.00
             425.69,353.79 427.44,316.33 427.00,278.00
             427.00,278.00 423.41,250.00 423.41,250.00
             423.41,250.00 420.09,239.00 420.09,239.00
             420.09,239.00 418.61,232.29 418.61,232.29
             418.61,232.29 415.38,223.83 415.38,223.83
             409.63,206.52 403.02,190.81 393.81,175.00
             360.92,118.52 306.00,78.25 249.00,48.32
             249.00,48.32 192.00,22.00 192.00,22.00 Z
           M 137.00,137.30
           C 131.85,138.26 123.78,140.02 119.09,142.09
             107.33,147.27 95.41,159.97 90.96,172.00
             79.54,202.94 96.88,237.06 129.00,245.13
             135.79,246.83 140.93,247.63 148.00,246.71
             158.02,245.41 163.39,243.47 172.00,238.19
             178.40,234.26 181.75,231.08 186.24,225.00
             194.22,214.20 194.17,211.31 196.46,199.00
             197.02,195.97 197.78,194.21 197.45,191.00
             194.99,167.01 183.86,148.25 160.00,140.38
             151.98,137.73 145.46,136.46 137.00,137.30 Z
           M 315.00,250.00
           C 312.00,245.88 302.07,243.78 297.00,242.80
             285.26,240.54 274.75,241.11 263.00,241.91
             258.53,242.22 256.99,241.72 252.00,242.62
             247.26,243.47 246.18,244.19 242.00,245.43
             233.83,247.85 225.81,249.84 218.00,253.41
             186.65,267.72 160.51,292.74 138.83,319.00
             130.36,329.26 122.03,339.59 115.16,351.00
             115.16,351.00 108.95,360.00 108.95,360.00
             108.95,360.00 99.58,376.00 99.58,376.00
             96.92,380.69 93.66,385.47 94.00,391.00
             97.97,389.06 99.85,386.10 103.01,383.03
             110.90,375.40 123.98,366.00 134.68,374.24
             141.19,379.26 145.01,386.90 146.01,395.00
             146.01,395.00 146.01,403.00 146.01,403.00
             146.01,403.00 148.31,414.00 148.31,414.00
             151.21,429.06 160.14,448.05 171.02,458.91
             179.30,467.17 189.36,472.58 199.72,477.70
             251.62,503.38 303.71,490.87 348.17,456.82
             359.42,448.20 369.06,438.95 378.66,428.58
             383.22,423.65 387.33,420.75 389.00,414.00
             389.00,414.00 357.00,431.53 357.00,431.53
             348.37,435.05 328.19,440.52 319.00,441.94
             319.00,441.94 309.00,441.94 309.00,441.94
             309.00,441.94 297.00,443.00 297.00,443.00
             280.83,443.02 266.55,440.04 253.00,430.81
             240.22,422.09 230.68,408.70 225.98,394.00
             225.98,394.00 223.76,384.00 223.76,384.00
             223.76,384.00 221.18,374.00 221.18,374.00
             219.55,360.54 221.12,352.91 223.54,340.00
             223.54,340.00 225.92,327.00 225.92,327.00
             230.04,312.33 238.56,296.19 247.63,284.00
             255.03,274.06 267.12,261.93 278.17,256.13
             291.25,249.26 300.90,250.00 315.00,250.00 Z
           M 0.00,0.00M 512.00,512.00M 0.00,512.00" />
</svg>
